<mxfile host="app.diagrams.net" modified="2021-08-26T14:01:12.390Z" agent="5.0 (Windows)" etag="QPA2H-15CNAEkw-2O95l" version="14.9.9" type="github">
  <diagram id="OqqNFM583UxCrqPdrHQG" name="Page-1">
    <mxGraphModel dx="868" dy="423" grid="1" gridSize="10" guides="1" tooltips="1" connect="1" arrows="1" fold="1" page="1" pageScale="1" pageWidth="850" pageHeight="1100" math="0" shadow="0">
      <root>
        <mxCell id="0" />
        <mxCell id="1" parent="0" />
        <mxCell id="UhsbX5yJDHMg4uzKMwZn-1" value="" style="rounded=1;whiteSpace=wrap;html=1;" vertex="1" parent="1">
          <mxGeometry x="200" y="50" width="470" height="290" as="geometry" />
        </mxCell>
        <mxCell id="UhsbX5yJDHMg4uzKMwZn-2" value="" style="outlineConnect=0;fontColor=#232F3E;gradientColor=none;fillColor=#FF4F8B;strokeColor=none;dashed=0;verticalLabelPosition=bottom;verticalAlign=top;align=center;html=1;fontSize=12;fontStyle=0;aspect=fixed;pointerEvents=1;shape=mxgraph.aws4.event;" vertex="1" parent="1">
          <mxGeometry x="425" y="50" width="40" height="40" as="geometry" />
        </mxCell>
        <mxCell id="UhsbX5yJDHMg4uzKMwZn-7" style="edgeStyle=orthogonalEdgeStyle;rounded=0;orthogonalLoop=1;jettySize=auto;html=1;exitX=0;exitY=0.5;exitDx=0;exitDy=0;" edge="1" parent="1" source="UhsbX5yJDHMg4uzKMwZn-3" target="UhsbX5yJDHMg4uzKMwZn-4">
          <mxGeometry relative="1" as="geometry">
            <Array as="points">
              <mxPoint x="390" y="135" />
              <mxPoint x="310" y="135" />
            </Array>
          </mxGeometry>
        </mxCell>
        <mxCell id="UhsbX5yJDHMg4uzKMwZn-9" style="edgeStyle=orthogonalEdgeStyle;rounded=0;orthogonalLoop=1;jettySize=auto;html=1;" edge="1" parent="1" source="UhsbX5yJDHMg4uzKMwZn-3" target="UhsbX5yJDHMg4uzKMwZn-8">
          <mxGeometry relative="1" as="geometry">
            <Array as="points">
              <mxPoint x="579" y="135" />
            </Array>
          </mxGeometry>
        </mxCell>
        <mxCell id="UhsbX5yJDHMg4uzKMwZn-3" value="IF &lt;span lang=&quot;EN-GB&quot;&gt;Transaction Total amount&lt;/span&gt;=+" style="rhombus;whiteSpace=wrap;html=1;" vertex="1" parent="1">
          <mxGeometry x="390" y="90" width="128.75" height="90" as="geometry" />
        </mxCell>
        <mxCell id="UhsbX5yJDHMg4uzKMwZn-4" value="DEBIT" style="rounded=1;whiteSpace=wrap;html=1;" vertex="1" parent="1">
          <mxGeometry x="250" y="200" width="120" height="60" as="geometry" />
        </mxCell>
        <mxCell id="UhsbX5yJDHMg4uzKMwZn-8" value="Credit" style="rounded=1;whiteSpace=wrap;html=1;" vertex="1" parent="1">
          <mxGeometry x="518.75" y="203" width="120" height="60" as="geometry" />
        </mxCell>
        <mxCell id="UhsbX5yJDHMg4uzKMwZn-10" value="TRUE" style="text;html=1;strokeColor=none;fillColor=none;align=center;verticalAlign=middle;whiteSpace=wrap;rounded=0;" vertex="1" parent="1">
          <mxGeometry x="340" y="110" width="40" height="20" as="geometry" />
        </mxCell>
        <mxCell id="UhsbX5yJDHMg4uzKMwZn-11" value="FALSE" style="text;html=1;strokeColor=none;fillColor=none;align=center;verticalAlign=middle;whiteSpace=wrap;rounded=0;" vertex="1" parent="1">
          <mxGeometry x="530" y="110" width="40" height="20" as="geometry" />
        </mxCell>
      </root>
    </mxGraphModel>
  </diagram>
</mxfile>
